<svg width="85" height="97" viewBox="0 0 85 97" fill="none" xmlns="http://www.w3.org/2000/svg">
<path d="M68.6235 23.0865C68.3667 22.703 67.943 22.4834 67.5272 22.2902C66.0574 21.5896 64.5332 20.948 62.9124 20.7078C61.3002 20.4723 59.5734 20.6507 58.1932 21.5162C59.7017 18.7049 61.5049 16.0651 63.5623 13.6302C63.406 13.4897 63.2411 13.3446 63.0848 13.2041C61.1823 14.5604 59.7699 16.4826 58.6022 18.5049C57.4346 20.5272 56.4768 22.6527 55.3006 24.6703C56.3129 20.592 55.7609 16.1494 53.7811 12.4355C53.3097 12.5886 52.843 12.7332 52.3716 12.8863C53.9277 14.243 54.379 16.3051 54.6478 18.3564C54.9081 20.4031 55.0378 22.4451 54.5546 24.4524L54.0788 26.8736C54.5475 25.0355 55.9315 24.0614 57.6684 23.2129C59.6576 22.2471 61.0277 22.0517 63.0911 22.0898C64.5276 22.1188 67.5508 23.2445 68.4936 24.3226C68.8817 24.0577 68.8849 23.4614 68.6235 23.0865Z" fill="#E08CB8"/>
<path d="M54.084 26.865C54.0492 26.99 54.0229 27.1197 54.0052 27.254L54.084 26.865Z" fill="#E08CB8"/>
<path d="M56.236 22.4217L3.66544 64.5904C3.66544 64.5904 5.1473 70.3589 10.4946 75.3194C14.7361 79.2569 22.8524 83.7537 22.8524 83.7537C22.8524 83.7537 31.0339 88.1309 36.6429 89.5569C43.7112 91.3566 49.3607 89.471 49.3607 89.471L56.236 22.4217Z" fill="#46A5AA"/>
<path d="M52.3404 37.8221C52.9727 38.4321 53.6835 39.0406 54.4484 39.4682L54.8809 35.2736C53.5094 34.25 52.0835 33.2853 50.8392 32.1094C49.8228 31.1462 48.9421 30.0354 48.226 28.8259L46.0039 30.6063C47.9055 33.1812 50.0345 35.603 52.3404 37.8221Z" fill="#E08CB8"/>
<path d="M51.1264 67.2744C51.2686 67.3186 51.424 67.3589 51.5841 67.3907L52.0235 63.1224C48.6845 60.2965 44.8916 57.9987 41.6347 55.0625C37.5419 51.3609 34.377 46.6474 32.4787 41.4605L27.9002 45.1254C31.4924 49.1967 34.4706 53.7643 38.0271 57.8605C41.596 61.9745 45.9149 65.6883 51.1264 67.2744Z" fill="#E08CB8"/>
<path d="M50.7191 75.7796C50.5403 75.6601 50.3568 75.5491 50.178 75.4296C44.2059 71.6573 38.2003 67.8447 32.9627 63.1101C28.684 59.2409 24.9033 54.7015 22.4122 49.5242L17.0987 53.7856C24.0424 66.1165 35.2653 76.0039 48.3933 81.3134C48.9304 81.5283 49.5117 81.723 50.1045 81.8354L50.7191 75.7796Z" fill="#E08CB8"/>
<path d="M42.7383 34.9967C42.5125 34.5969 42.3007 34.1714 42.0936 33.7375L38.5365 36.5852C41.5211 41.2227 44.8751 45.6295 48.5489 49.7341C49.8573 51.1996 51.2487 52.655 53.0093 53.5139L53.5356 48.3736C49.2197 44.5728 45.5438 40.024 42.7383 34.9967Z" fill="#E08CB8"/>
<path d="M17.3336 76.3191C19.2632 78.9646 21.2007 81.6365 23.395 84.0606C25.3678 85.0794 31.8886 88.353 36.5907 89.551C37.7478 89.8488 38.8651 90.0363 39.9195 90.1563C39.7045 89.6959 39.3793 89.2752 39.0487 88.8848C36.2459 85.5423 32.6461 82.951 29.5918 79.826C23.799 73.892 20.1024 66.1644 14.3553 60.1667C13.6071 59.3827 12.8146 58.619 12.1339 57.7721L6.94145 61.9333C7.55781 62.8781 8.22306 63.7941 8.87588 64.6922C11.6949 68.5751 14.5185 72.4494 17.3336 76.3191Z" fill="#E08CB8"/>
<path opacity="0.34" d="M18.3253 59.8585C17.1317 60.8698 15.8876 61.9534 15.3447 63.4187C14.8018 64.8841 15.2306 66.8453 16.677 67.4667C17.6773 67.8896 18.8694 67.5529 19.7325 66.9043C20.5956 66.2557 21.22 65.333 21.8303 64.436C26.2782 57.9977 31.6661 52.2151 37.7643 47.3066C38.8082 46.4685 42.146 42.7815 38.7078 42.9473C36.7052 43.0419 33.6789 46.7878 32.1935 48.05C27.5749 51.9921 22.9478 55.9296 18.3253 59.8585Z" fill="white"/>
<path opacity="0.34" d="M41.2558 40.3032C41.131 40.5121 41.0054 40.7428 41.0275 40.9873C41.0591 41.4586 41.6024 41.7434 42.0646 41.7293C43.0023 41.6971 43.7176 40.9126 44.322 40.1896C45.1265 39.221 49.5838 34.9032 45.9774 35.3983C43.8336 35.6708 42.2017 38.6475 41.2558 40.3032Z" fill="white"/>
<path d="M66.5575 30.7883C67.135 28.3229 66.2416 25.566 64.317 23.9089C62.3924 22.2518 59.5384 21.7722 57.1802 22.7032C58.3358 21.0288 59.8614 19.6112 61.6129 18.5934C62.5553 18.0434 63.6424 17.5942 64.7256 17.7631C64.6621 17.3299 64.5855 16.9005 64.5221 16.4673C60.4561 16.5238 56.5625 19.2769 55.1546 23.0843C55.3326 21.2099 54.2515 19.3476 52.7027 18.2828C51.1501 17.2048 49.1982 16.8398 47.3137 16.9212C46.9602 16.9392 46.5889 16.9696 46.3072 17.1817C45.7615 17.5934 45.8292 18.4055 45.9411 19.0756C47.7734 18.1129 50.1624 18.3062 51.8271 19.5448C53.4918 20.7835 54.3512 23.0124 53.9628 25.0492L54.623 26.3612C55.6574 24.665 57.7912 23.8001 59.7554 24.0611C61.7282 24.3268 63.4737 25.6205 64.5174 27.3074C64.8638 27.8725 65.1511 28.5052 65.1589 29.1629C65.162 29.8291 64.8287 30.5226 64.2223 30.8015C65.0203 30.9038 65.7956 30.905 66.5575 30.7883Z" fill="#46A5AA"/>
</svg>
